<?xml version="1.0" standalone="no"?>
<!DOCTYPE svg PUBLIC "-//W3C//DTD SVG 20010904//EN"
        "http://www.w3.org/TR/2001/REC-SVG-20010904/DTD/svg10.dtd">
<svg version="1.0" xmlns="http://www.w3.org/2000/svg"
     width="2000.000000pt" height="2000.000000pt" viewBox="0 0 2000.000000 2000.000000"
     preserveAspectRatio="xMidYMid meet">
    <metadata>
        Created by potrace 1.14, written by Peter Selinger 2001-2017
    </metadata>
    <g transform="translate(0.000000,2000.000000) scale(0.100000,-0.100000)"
       fill="#000000" stroke="none">
        <path d="M10780 18439 c-285 -29 -605 -123 -925 -271 l-150 -69 -85 18 c-128
26 -329 24 -445 -6 -94 -24 -301 -99 -369 -133 -31 -16 -72 -22 -190 -29 -348
-20 -735 -88 -1052 -184 -44 -13 -168 -40 -275 -60 -652 -119 -1239 -292
-1800 -531 -190 -81 -863 -408 -994 -483 -270 -156 -572 -367 -780 -546 -162
-140 -482 -444 -698 -664 -117 -119 -295 -291 -397 -383 -607 -545 -1032
-1073 -1290 -1603 -165 -338 -254 -643 -302 -1035 -17 -137 -17 -636 0 -800
60 -579 197 -1168 447 -1916 62 -186 88 -280 100 -360 102 -701 258 -1313 483
-1899 36 -93 82 -228 104 -298 185 -615 498 -1155 990 -1714 73 -83 135 -168
195 -265 181 -296 388 -589 574 -813 115 -138 430 -452 569 -567 796 -657
1765 -1046 2990 -1203 542 -69 1074 -95 1945 -95 1766 0 3187 122 5112 440
763 126 1248 265 1698 485 348 170 627 372 951 688 327 318 639 725 874 1142
46 83 114 191 150 240 582 792 940 1744 1085 2887 101 801 81 1778 -55 2575
-172 1010 -540 2033 -1224 3403 -420 841 -774 1399 -1197 1890 -136 157 -417
435 -539 533 -460 367 -1003 622 -1690 791 -456 113 -1072 207 -1774 272
l-178 16 -137 90 c-152 101 -415 235 -567 291 -396 145 -793 202 -1154 166z
m605 -468 c30 -8 -8 -9 -144 -6 -101 3 -243 6 -315 7 -97 1 -119 3 -86 9 62
10 496 2 545 -10z m2442 -647 c-3 -3 -12 -4 -19 -1 -8 3 -5 6 6 6 11 1 17 -2
13 -5z m210 -33 c547 -101 984 -241 1388 -446 338 -171 587 -350 864 -620 215
-210 410 -443 596 -710 108 -156 103 -154 -79 25 -133 132 -193 198 -240 270
-209 316 -509 580 -942 826 -391 222 -987 457 -1595 628 -107 30 -184 55 -172
55 11 1 92 -12 180 -28z m-1149 -216 c4 -4 -6 -5 -23 -2 -16 4 -58 12 -92 18
-35 6 -63 15 -63 19 0 9 168 -24 178 -35z m-9268 -1868 c0 -2 -12 -14 -27 -28
l-28 -24 24 28 c23 25 31 32 31 24z m-143 -170 c-50 -62 -123 -154 -161 -205
-37 -50 -70 -92 -73 -92 -6 0 25 44 113 160 74 98 201 250 209 250 3 0 -37
-51 -88 -113z m-253 -332 c-9 -14 -18 -25 -21 -25 -5 0 5 18 20 38 17 22 18
13 1 -13z m10159 -615 c524 -20 643 -35 868 -110 355 -118 663 -358 863 -673
188 -298 264 -603 286 -1157 12 -300 12 -3720 0 -4025 -18 -479 -73 -752 -202
-1010 -92 -183 -194 -321 -346 -467 -273 -261 -646 -420 -1056 -448 -415 -29
-859 -32 -4111 -28 -3402 4 -3595 7 -3842 44 -567 85 -1023 419 -1268 928 -65
136 -96 234 -129 407 -62 324 -60 232 -64 2459 -3 2062 -1 2243 34 2521 31
256 75 421 159 595 208 432 572 744 1021 875 189 55 333 72 759 88 319 12
6704 13 7028 1z m-11604 -735 c-147 -485 -237 -999 -285 -1620 l-8 -100 -8 65
c-13 105 -12 555 1 680 28 263 88 533 166 746 39 106 163 370 170 363 2 -3
-14 -63 -36 -134z m3281 -9353 c373 -196 850 -383 1218 -478 123 -32 140 -39
235 -103 108 -72 283 -174 405 -235 39 -20 72 -38 72 -40 0 -1 -48 8 -107 21
-751 165 -1395 450 -1940 859 -127 96 -152 122 -72 77 30 -16 115 -62 189
-101z m11315 62 c-59 -45 -429 -254 -451 -254 -4 0 59 38 141 84 83 46 188
107 234 135 83 50 115 65 76 35z"/>
        <path d="M8730 10245 c0 -894 2 -1625 5 -1625 18 0 2985 1624 2978 1630 -11
10 -2970 1620 -2977 1620 -3 0 -6 -731 -6 -1625z"/>
    </g>
</svg>
